<svg width="17" height="21" viewBox="0 0 17 21" fill="none" xmlns="http://www.w3.org/2000/svg">
<path fill-rule="evenodd" clip-rule="evenodd" d="M8.3749 0.00176677C11.2949 0.00176677 13.6729 2.37977 13.6729 5.30277L13.6728 6.87937C15.448 7.49718 16.725 9.18718 16.725 11.1706V15.4596C16.725 17.9646 14.688 20.0016 12.183 20.0016H4.542C2.037 20.0016 0 17.9646 0 15.4596V11.1706C0 9.18755 1.27652 7.49782 3.05121 6.87972L3.0519 5.30277C3.0579 3.86277 3.6149 2.53377 4.6199 1.53777C5.6259 0.540767 6.9539 -0.0362332 8.3749 0.00176677ZM12.183 8.12857H4.542C2.864 8.12857 1.5 9.49257 1.5 11.1706V15.4596C1.5 17.1376 2.864 18.5016 4.542 18.5016H12.183C13.86 18.5016 15.225 17.1376 15.225 15.4596V11.1706C15.225 9.49257 13.86 8.12857 12.183 8.12857ZM8.3623 11.4544C8.7763 11.4544 9.1123 11.7904 9.1123 12.2044V14.4254C9.1123 14.8394 8.7763 15.1754 8.3623 15.1754C7.9483 15.1754 7.6123 14.8394 7.6123 14.4254V12.2044C7.6123 11.7904 7.9483 11.4544 8.3623 11.4544ZM8.3719 1.50177H8.3559C7.3429 1.50177 6.3939 1.89177 5.6769 2.60277C4.9549 3.31677 4.5559 4.26977 4.5519 5.28577L4.551 6.628H12.172L12.1729 5.30277C12.1729 3.20677 10.4679 1.50177 8.3719 1.50177Z" fill="#111111"/>
</svg>
